<?xml version="1.0" encoding="UTF-8"?><svg id="Layer_2" xmlns="http://www.w3.org/2000/svg" xmlns:xlink="http://www.w3.org/1999/xlink" viewBox="0 0 60 60"><defs><style>.cls-1,.cls-2{fill:url(#linear-gradient);}.cls-3{clip-path:url(#clippath);}.cls-4{fill:#fff;}.cls-5{clip-path:url(#clippath-1);}.cls-2,.cls-6{stroke:#fff;stroke-linecap:round;stroke-linejoin:round;stroke-width:2.74px;}.cls-6{fill:none;}</style><linearGradient id="linear-gradient" x1="10.97" y1="6.03" x2="48.28" y2="53.02" gradientTransform="matrix(1, 0, 0, 1, 0, 0)" gradientUnits="userSpaceOnUse"><stop offset="0" stop-color="#5e9bd4"/><stop offset=".34" stop-color="#6570b3"/><stop offset=".78" stop-color="#6e3d8d"/><stop offset="1" stop-color="#722a7f"/></linearGradient><clipPath id="clippath"><path class="cls-6" d="M25.42,40.85h8.64l6.15,4.1-.11-4.1h3.63c1.14,0,2.06-.93,2.06-2.06v-10.56c0-1.14-.93-2.06-2.06-2.06H25.42c-1.14,0-2.06,.93-2.06,2.06v10.56c0,1.14,.93,2.06,2.06,2.06Z"/></clipPath><clipPath id="clippath-1"><path class="cls-6" d="M32.11,30.76h-8.64l-6.15,4.1,.11-4.1h-3.63c-1.14,0-2.06-.93-2.06-2.06v-10.56c0-1.14,.93-2.06,2.06-2.06h18.3c1.14,0,2.06,.93,2.06,2.06v10.56c0,1.14-.93,2.06-2.06,2.06Z"/></clipPath></defs><g id="Layer_1-2"><circle class="cls-1" cx="30" cy="30" r="30"/></g><g id="Layer_2-2"><g><g class="cls-3"><circle class="cls-2" cx="30" cy="30" r="30"/></g><path class="cls-6" d="M25.42,40.85h8.64l6.15,4.1-.11-4.1h3.63c1.14,0,2.06-.93,2.06-2.06v-10.56c0-1.14-.93-2.06-2.06-2.06H25.42c-1.14,0-2.06,.93-2.06,2.06v10.56c0,1.14,.93,2.06,2.06,2.06Z"/></g></g><g id="Layer_3"><g><g class="cls-5"><circle class="cls-2" cx="30" cy="30" r="30"/></g><path class="cls-6" d="M32.11,30.76h-8.64l-6.15,4.1,.11-4.1h-3.63c-1.14,0-2.06-.93-2.06-2.06v-10.56c0-1.14,.93-2.06,2.06-2.06h18.3c1.14,0,2.06,.93,2.06,2.06v10.56c0,1.14-.93,2.06-2.06,2.06Z"/></g></g><g id="Layer_4"><circle class="cls-4" cx="18.38" cy="23.26" r="1.03"/></g><g id="Layer_5"><circle class="cls-4" cx="22.98" cy="23.26" r="1.03"/></g><g id="Layer_6"><circle class="cls-4" cx="27.53" cy="23.26" r="1.03"/></g></svg>