<svg xmlns="http://www.w3.org/2000/svg" width="800" height="800" viewBox="0 0 800 800"><defs><style>.a{fill:#636363;}.b{fill:#fff;}.c{fill:#193980;}</style></defs><path class="a" d="M278.1636,473.74c0,98.0877,109.0972,177.5974,243.6788,177.5974,42.402,0,82.2892-7.8932,117.0145-21.7786,26.0139,20.8761,77.5123,46.83,106.1854,60.5829a9.5992,9.5992,0,0,0,13.2356-11.7436L722.9029,574.09c26.88-28.5527,42.6064-63.11,42.6064-100.35,0-98.0876-109.0972-177.5973-243.6669-177.5973C387.2608,296.1427,278.1636,375.6524,278.1636,473.74Z"/><path class="b" d="M382.46,432.3138H675.2721c3.9549,0,7.9155.0626,11.87,0,.1729-.0027.3461,0,.519,0,5.3085,0,5.3173-8.25,0-8.25H394.8488c-3.9549,0-7.9156-.0625-11.87,0-.1729.0028-.346,0-.5189,0-5.3085,0-5.3173,8.25,0,8.25Z"/><path class="b" d="M382.46,480.1957H643.1382c3.5164,0,7.0374.0529,10.5534,0,.1537-.0023.3076,0,.4614,0a4.125,4.125,0,0,0,0-8.25H393.4745c-3.5163,0-7.0373-.0529-10.5534,0-.1537.0023-.3076,0-.4613,0a4.125,4.125,0,0,0,0,8.25Z"/><path class="b" d="M382.46,528.0776H484.3765c4.6937,0,9.4085.1306,14.1009,0,.0677-.0019.1357,0,.2035,0a4.125,4.125,0,0,0,0-8.25H396.7642c-4.6937,0-9.4086-.13-14.101,0-.0677.0019-.1357,0-.2034,0a4.125,4.125,0,0,0,0,8.25Z"/><path class="b" d="M521.8364,286.4859c0,98.0877-109.0972,177.5974-243.6788,177.5974-42.402,0-82.2892-7.8932-117.0145-21.7786-26.0139,20.8762-77.5123,46.83-106.1854,60.5829A9.5992,9.5992,0,0,1,41.7221,491.144l35.375-104.3083c-26.88-28.5528-42.6064-63.11-42.6064-100.35,0-98.0876,109.0972-177.5972,243.6669-177.5972C412.7392,108.8887,521.8364,188.3983,521.8364,286.4859Z"/><path class="c" d="M517.7114,286.4859a134.3094,134.3094,0,0,1-18.514,66.9241c-12.51,21.6032-30.2262,40.002-50.2994,54.7191-22.6823,16.63-48.3309,28.99-75.1142,37.4369a324.1574,324.1574,0,0,1-199.6514-2.79q-5.9952-2.0928-11.8927-4.449c-1.4351-.5715-2.9317.1963-4.0134,1.0608a263.8119,263.8119,0,0,1-28.5282,19.2742c-11.351,6.8563-22.9625,13.2783-34.6825,19.4795q-16.2549,8.6005-32.791,16.6555-3.56,1.7416-7.1307,3.4622c-2.1046,1.0142-4.1633,2.0726-6.4845,1.0259-2.941-1.3263-3.746-4.37-2.8442-7.2375,2.8837-9.1685,6.1815-18.2272,9.2682-27.3287l16.0033-47.1881c3.2812-9.6749,7.0885-19.3243,9.8869-29.1528.0428-.15.101-.2978.1512-.4458a4.1281,4.1281,0,0,0-1.0608-4.0134c-20.1613-21.51-35.0014-47.9209-39.8089-77.22a129.3876,129.3876,0,0,1,7.2686-67.1207c7.7248-20.1024,20.3218-38.1607,35.3616-53.4672,16.7371-17.034,36.5464-30.792,57.7787-41.6308a286.535,286.535,0,0,1,74.9518-25.4863,328.2193,328.2193,0,0,1,85.54-5.2031,310.1969,310.1969,0,0,1,80.7481,16.29,255.1818,255.1818,0,0,1,66.5288,34.3855c18.1073,13.197,34.3576,29.3789,46.5879,48.2112,11.3653,17.5,19.3288,37.4066,21.8126,58.2036a134.0056,134.0056,0,0,1,.9279,15.6047c.0116,5.308,8.2616,5.3178,8.25,0a141.6141,141.6141,0,0,0-15.6789-63.7987c-10.4235-20.4982-25.4868-38.5461-42.8389-53.5431a245.4337,245.4337,0,0,0-64.531-39.7056,309.8634,309.8634,0,0,0-80.953-21.8136,337.13,337.13,0,0,0-88.8962.1734,307.6866,307.6866,0,0,0-80.6022,22.0461,244.612,244.612,0,0,0-64.2824,39.9109c-17.2643,15.0576-32.2257,33.1606-42.52,53.6948a140.8748,140.8748,0,0,0-15.2875,64.215c.2717,30.4467,11.1788,59.8806,29.0719,84.337a190.1549,190.1549,0,0,0,14.7369,17.75L73.12,385.7391l-8.7124,25.69-16.5534,48.81c-3.3389,9.8452-6.7979,19.6586-10.0192,29.543A13.7459,13.7459,0,0,0,39.4709,501.94c4.0425,5.8026,11.2685,7.3863,17.5688,4.51,10.7146-4.8925,21.2209-10.3445,31.6915-15.7334,23.5261-12.1084,47.2641-24.712,68.6526-40.3822q3.3915-2.4847,6.6761-5.1123l-4.0134,1.0609c34.4536,13.7188,71.4491,20.74,108.4773,21.7894a330.2433,330.2433,0,0,0,97.8438-11.6953c28.1335-7.8479,55.3862-19.746,79.6139-36.1368,21.9748-14.8667,41.616-33.4587,56.113-55.7815,13.3861-20.6122,21.8456-44.2795,23.5511-68.85.2108-3.0365.3092-6.0782.3158-9.1218C525.973,281.177,517.723,281.1692,517.7114,286.4859Z"/><path class="c" d="M125.5629,239.9734H418.3752c3.9549,0,7.9156.0626,11.87,0,.1729-.0027.346,0,.5189,0,5.3085,0,5.3173-8.25,0-8.25H137.9519c-3.9549,0-7.9155-.0625-11.87,0-.1728.0028-.346,0-.5189,0-5.3085,0-5.3173,8.25,0,8.25Z"/><path class="c" d="M125.5629,287.8553H360.6007c3.182,0,6.3683.0486,9.55,0,.1366-.0021.2734,0,.41,0a4.125,4.125,0,0,0,0-8.25H135.5231c-3.182,0-6.3684-.0486-9.55,0-.1366.0021-.2734,0-.41,0a4.125,4.125,0,0,0,0,8.25Z"/><path class="c" d="M125.5629,335.7372h195.224c2.6332,0,5.2718.0489,7.9047,0,.1128-.0021.2259,0,.3388,0a4.125,4.125,0,0,0,0-8.25H133.8065c-2.6333,0-5.2718-.0488-7.9047,0-.1129.0021-.226,0-.3389,0a4.125,4.125,0,0,0,0,8.25Z"/></svg>