<svg xmlns="http://www.w3.org/2000/svg" width="150" height="150" viewBox="0 0 800 800"><defs><style>.a,.h{fill:#fff;}.a,.b,.c,.d,.e{stroke:#193980;stroke-width:14px;}.a,.c,.d,.e{stroke-miterlimit:10;}.b,.c,.d{fill:none;}.b{stroke-linejoin:bevel;}.c{stroke-linecap:round;}.e,.g{fill:#193980;}.f{fill:#898d8d;}</style></defs><rect class="a" x="53.9542" y="53.9542" width="692.0916" height="692.0916" rx="12"/><path class="b" d="M481.5719,253.1166a137.5289,137.5289,0,0,1-2.1548,25.3726"/><path class="c" d="M451.251,318.932c-14.57,13.61-33.3865,21.8112-53.9309,21.8112-46.25,0-83.7432-41.5633-83.7432-92.8342S351.07,155.0748,397.32,155.0748c21.1279,0,41.2709,9.0572,56.1224,23.9311,19.6549,19.6848,27.9157,46.7779,28.1294,74.1107"/><path class="c" d="M319.184,161.9413c19.9445-22.2759,47.5872-36.07,78.1361-36.07,51.1092,0,94.0837,38.61,106.4839,90.9537"/><rect class="d" x="489.9238" y="216.4393" width="34.9663" height="62.9394" rx="10.5839"/><path class="c" d="M489.9238,273.0676s-26.8848,29.2777-85.2713,29.2777"/><ellipse class="e" cx="396.0176" cy="302.3453" rx="12.581" ry="9.8428"/><path class="d" d="M466.2445,368.7266c30.1162,7.3706,59.0273,33.0112,80.31,56.6525,15.4936,17.2106,3.0536,44.67-20.1037,44.67l-251.06-.0014c-24.0432,0-37.3617-27.5943-22.6945-46.6454,19.7835-25.6967,48.4833-45.1839,87.2843-54.6809,11.214-2.7447,33.4338,3.7654,43.3027,5.8117a104.3493,104.3493,0,0,0,41.3072-.0236C434.9908,372.48,454.9248,365.9562,466.2445,368.7266Z"/><rect class="f" x="124.7721" y="557.1793" width="550.4558" height="116.9493" rx="31.5068"/><rect class="g" x="529.2826" y="557.1793" width="145.9453" height="116.9493" rx="31.5068"/><path class="h" d="M152.5617,623.4907l6.4336-.5625a14.205,14.205,0,0,0,2.1269,6.3457,11.61,11.61,0,0,0,5.1856,4.0078,19.6363,19.6363,0,0,0,7.91,1.5293,18.9551,18.9551,0,0,0,6.8906-1.16,9.5586,9.5586,0,0,0,4.4473-3.1817,7.3793,7.3793,0,0,0,1.459-4.4121,6.7071,6.7071,0,0,0-1.4063-4.2363,10.4163,10.4163,0,0,0-4.6406-3.041,90.6823,90.6823,0,0,0-9.1758-2.5137,46.8836,46.8836,0,0,1-9.9492-3.2168,13.9509,13.9509,0,0,1-5.5019-4.7988,11.7607,11.7607,0,0,1-1.8106-6.416,13.0989,13.0989,0,0,1,2.2149-7.295,13.7145,13.7145,0,0,1,6.4687-5.15,24.5422,24.5422,0,0,1,9.457-1.7578,25.8373,25.8373,0,0,1,10.1075,1.8457,14.5781,14.5781,0,0,1,6.7324,5.4317,15.6,15.6,0,0,1,2.5312,8.1211l-6.539.4922a10.5512,10.5512,0,0,0-3.5684-7.3829q-3.0409-2.496-8.9824-2.496-6.1875,0-9.0176,2.2675a6.8006,6.8006,0,0,0-2.83,5.4668,5.8608,5.8608,0,0,0,2.0039,4.57q1.9688,1.7931,10.2832,3.6739A68.0168,68.0168,0,0,1,184.8,612.9087a15.6249,15.6249,0,0,1,6.6446,5.2558,12.8043,12.8043,0,0,1,2.1445,7.33,14.0192,14.0192,0,0,1-2.3555,7.752,15.509,15.509,0,0,1-6.7675,5.66,23.5771,23.5771,0,0,1-9.9317,2.0215,29.6543,29.6543,0,0,1-11.7246-2.0391,16.4207,16.4207,0,0,1-7.418-6.1347A17.3942,17.3942,0,0,1,152.5617,623.4907Z"/><path class="h" d="M215.9132,634.3891l.9141,5.59a23.4732,23.4732,0,0,1-4.7813.5625,10.8238,10.8238,0,0,1-5.3437-1.09,6.1021,6.1021,0,0,1-2.6719-2.8652q-.7734-1.7754-.7734-7.4707v-21.48h-4.6407v-4.9218h4.6407v-9.2461L209.55,589.67v13.043h6.3633v4.9218H209.55v21.8321a11.0294,11.0294,0,0,0,.334,3.48,2.6357,2.6357,0,0,0,1.09,1.23,4.21,4.21,0,0,0,2.1621.457A20.5788,20.5788,0,0,0,215.9132,634.3891Z"/><path class="h" d="M246.464,635.4438a23.5625,23.5625,0,0,1-6.7676,4.2188,19.5552,19.5552,0,0,1-6.9785,1.2305q-6.1524,0-9.457-3.0059a9.9215,9.9215,0,0,1-3.3047-7.6816,10.2164,10.2164,0,0,1,1.248-5.01,10.3328,10.3328,0,0,1,3.27-3.6387,15.3735,15.3735,0,0,1,4.5527-2.0742,45.2268,45.2268,0,0,1,5.625-.9492,57.8466,57.8466,0,0,0,11.2852-2.18q.0351-1.3008.0351-1.6524,0-3.8671-1.793-5.4492-2.4256-2.1445-7.207-2.1445-4.4648,0-6.5918,1.5644t-3.1465,5.5372l-6.1875-.8438a15.331,15.331,0,0,1,2.7774-6.416,12.1731,12.1731,0,0,1,5.59-3.7617,24.9326,24.9326,0,0,1,8.4727-1.3184,22.4252,22.4252,0,0,1,7.7695,1.125,10.2373,10.2373,0,0,1,4.3945,2.83,9.9536,9.9536,0,0,1,1.9688,4.3066,35.6366,35.6366,0,0,1,.3164,5.836v8.4375a89.5625,89.5625,0,0,0,.4043,11.1621,14.081,14.081,0,0,0,1.6,4.4824H247.73A13.4187,13.4187,0,0,1,246.464,635.4438Zm-.5273-14.1328a46.4254,46.4254,0,0,1-10.336,2.3906,23.9042,23.9042,0,0,0-5.5195,1.2657,5.5022,5.5022,0,0,0-2.4961,2.0566,5.5935,5.5935,0,0,0,1.0371,7.2246,8.2437,8.2437,0,0,0,5.6074,1.6875,13.05,13.05,0,0,0,6.5039-1.6,9.85,9.85,0,0,0,4.1836-4.3769,15.2866,15.2866,0,0,0,1.02-6.3282Z"/><path class="h" d="M262.0734,640.0493V602.7134h5.6953v5.66q2.18-3.9726,4.0254-5.2383a7.0268,7.0268,0,0,1,4.06-1.2656,12.343,12.343,0,0,1,6.5039,2.0391l-2.18,5.8711a9.0536,9.0536,0,0,0-4.6406-1.3711,6.0264,6.0264,0,0,0-3.7265,1.248,6.7607,6.7607,0,0,0-2.3555,3.4629,24.65,24.65,0,0,0-1.0547,7.3828v19.5469Z"/><path class="h" d="M299.9367,634.3891l.914,5.59a23.4723,23.4723,0,0,1-4.7812.5625,10.8239,10.8239,0,0,1-5.3438-1.09,6.1025,6.1025,0,0,1-2.6719-2.8652q-.7734-1.7754-.7734-7.4707v-21.48H282.64v-4.9218H287.28v-9.2461l6.293-3.7969v13.043h6.3633v4.9218h-6.3633v21.8321a11.0262,11.0262,0,0,0,.334,3.48,2.6349,2.6349,0,0,0,1.09,1.23,4.21,4.21,0,0,0,2.1621.457A20.5814,20.5814,0,0,0,299.9367,634.3891Z"/><path class="h" d="M363.71,621.979l6.82,1.7226q-2.1445,8.4024-7.7168,12.8145a21.2624,21.2624,0,0,1-13.623,4.4121q-8.3321,0-13.5528-3.3926a21.184,21.184,0,0,1-7.9453-9.8261,35.06,35.06,0,0,1-2.7246-13.8164,30.37,30.37,0,0,1,3.0762-14.045,21.0759,21.0759,0,0,1,8.7539-9.1054,25.5765,25.5765,0,0,1,12.498-3.1114,21.1283,21.1283,0,0,1,13.0078,3.9375,20.4471,20.4471,0,0,1,7.3477,11.0743l-6.7148,1.582q-1.7931-5.625-5.2032-8.1914a13.8645,13.8645,0,0,0-8.5781-2.5664,16.6628,16.6628,0,0,0-9.9316,2.8476,15.0386,15.0386,0,0,0-5.6075,7.6465,30.7849,30.7849,0,0,0-1.6171,9.8965,31.4479,31.4479,0,0,0,1.916,11.4785,14.2725,14.2725,0,0,0,5.959,7.33,16.7119,16.7119,0,0,0,8.7539,2.4258,14.6688,14.6688,0,0,0,9.7031-3.3047Q362.3038,628.483,363.71,621.979Z"/><path class="h" d="M379.1437,640.0493V588.51h6.82v21.1641h26.7891V588.51h6.82v51.5391h-6.82v-24.293H385.964v24.293Z"/><path class="h" d="M425.2687,640.0493l19.793-51.5391h7.3476l21.0938,51.5391h-7.77L459.7218,624.44H438.171l-5.66,15.6094ZM440.14,618.8852h17.4726l-5.3789-14.2734q-2.4609-6.5039-3.6562-10.6875a65.6991,65.6991,0,0,1-2.7774,9.8438Z"/><path class="h" d="M486.7218,640.0493v-45.457h-16.98V588.51h40.8516v6.0821H493.5421v45.457Z"/><path class="h" d="M575.923,618.189v-6.0469l21.832-.0352v19.125a38.5479,38.5479,0,0,1-10.3711,6.0293,30.7586,30.7586,0,0,1-10.9687,2.0215,29.2684,29.2684,0,0,1-13.7989-3.252,21.4967,21.4967,0,0,1-9.3691-9.4042,29.61,29.61,0,0,1-3.1641-13.7461,31.898,31.898,0,0,1,3.1465-14.045,20.9261,20.9261,0,0,1,9.0528-9.6855,28.3692,28.3692,0,0,1,13.6054-3.1641,26.9559,26.9559,0,0,1,10.1075,1.8106,16.7568,16.7568,0,0,1,7.0839,5.0449,22.3753,22.3753,0,0,1,3.9024,8.4375l-6.1524,1.6875a19.04,19.04,0,0,0-2.8828-6.1875,11.8254,11.8254,0,0,0-4.9219-3.6035,18.0492,18.0492,0,0,0-7.1015-1.3535,20.9112,20.9112,0,0,0-8.086,1.4238,15.0916,15.0916,0,0,0-5.5019,3.7441,17.8566,17.8566,0,0,0-3.252,5.0977,26.9728,26.9728,0,0,0-1.9687,10.3711,25.1645,25.1645,0,0,0,2.373,11.5312,15.1876,15.1876,0,0,0,6.9082,6.8907,21.3887,21.3887,0,0,0,9.6329,2.25,22.8848,22.8848,0,0,0,8.6484-1.7051,22.3184,22.3184,0,0,0,6.3984-3.6387V618.189Z"/><path class="h" d="M605.7355,613.3022q0-12.8321,6.8906-20.0918t17.7891-7.26a24.6791,24.6791,0,0,1,12.8672,3.41,22.2713,22.2713,0,0,1,8.7363,9.51,30.8862,30.8862,0,0,1,3.0058,13.834,30.3684,30.3684,0,0,1-3.164,14.0273,21.602,21.602,0,0,1-8.9649,9.3692,25.6129,25.6129,0,0,1-12.5156,3.1816,24.3706,24.3706,0,0,1-13.0078-3.5156,22.6242,22.6242,0,0,1-8.6836-9.5977A29.0871,29.0871,0,0,1,605.7355,613.3022Zm7.0312.1055q0,9.3164,5.01,14.6777a17.4768,17.4768,0,0,0,25.2422-.0527q4.9746-5.4141,4.9746-15.3633a26.402,26.402,0,0,0-2.127-10.9863,16.3418,16.3418,0,0,0-6.2226-7.2774,16.8708,16.8708,0,0,0-9.1934-2.5839,17.439,17.439,0,0,0-12.4629,4.9746Q612.7668,601.771,612.7667,613.4077Z"/></svg>