<svg xmlns="http://www.w3.org/2000/svg" width="150" height="125" viewBox="0 0 952.9671 802.4472"><defs><style>.a{fill:#898d8d;}.b,.g{fill:#193980;}.c{fill:#fff;}.d,.e,.f{fill:none;}.d,.e,.f,.g{stroke:#193980;stroke-width:14px;}.d{stroke-linejoin:bevel;}.e{stroke-linecap:round;}.e,.f,.g{stroke-miterlimit:10;}</style></defs><path class="a" d="M169.9675,33.9541l0,768.4931H31.5071A31.6,31.6,0,0,1,0,770.94V33.9541A31.5993,31.5993,0,0,1,31.5071,2.4473H138.4607A31.5993,31.5993,0,0,1,169.9675,33.9541Z"/><path class="b" d="M10.4366,23.5178H159.5313a31.5068,31.5068,0,0,1,31.5068,31.5068v138.46a0,0,0,0,1,0,0H-21.07a0,0,0,0,1,0,0V55.0246A31.5068,31.5068,0,0,1,10.4366,23.5178Z" transform="translate(-23.5175 193.4853) rotate(-90)"/><path class="c" d="M96.3732,762.0611l-.8174-9.3506a20.6389,20.6389,0,0,0,9.2227-3.0908,16.8712,16.8712,0,0,0,5.8242-7.5371,28.5224,28.5224,0,0,0,2.2226-11.4961,27.5566,27.5566,0,0,0-1.6855-10.0146,13.8929,13.8929,0,0,0-4.624-6.4629,10.7284,10.7284,0,0,0-6.4121-2.12,9.7563,9.7563,0,0,0-6.1573,2.0429,15.1588,15.1588,0,0,0-4.42,6.7451,132.2841,132.2841,0,0,0-3.6533,13.335q-2.4771,10.3214-4.6748,14.46a20.2646,20.2646,0,0,1-6.9746,7.9961A17.085,17.085,0,0,1,64.9,759.2a19.0378,19.0378,0,0,1-10.6025-3.22,19.9389,19.9389,0,0,1-7.4853-9.4014,35.6752,35.6752,0,0,1-2.5547-13.7441,37.5539,37.5539,0,0,1,2.6826-14.69,21.1928,21.1928,0,0,1,7.8945-9.7842,22.6864,22.6864,0,0,1,11.8028-3.6787l.7148,9.5029q-7.1016.7677-10.7295,5.1866t-3.6279,13.0547q0,8.9927,3.2959,13.1054a9.884,9.884,0,0,0,7.9453,4.1133,8.5138,8.5138,0,0,0,6.6416-2.9131q2.606-2.8608,5.34-14.9443t4.7774-16.58a22.7067,22.7067,0,0,1,7.6386-9.6572,18.6137,18.6137,0,0,1,10.6524-3.1162,20.3828,20.3828,0,0,1,11.2666,3.4228,22.5475,22.5475,0,0,1,8.2266,9.836,34.2778,34.2778,0,0,1,2.9375,14.4335q0,10.169-2.9639,17.04a23.8606,23.8606,0,0,1-8.9151,10.7812A25.2759,25.2759,0,0,1,96.3732,762.0611Z"/><path class="c" d="M112.212,669.99l8.1241-1.3281a34.1151,34.1151,0,0,1,.8174,6.9482,15.7464,15.7464,0,0,1-1.5831,7.7666,8.867,8.867,0,0,1-4.165,3.8829q-2.5781,1.125-10.8574,1.124H73.33v6.7441H66.1769v-6.7441H52.7394l-5.5186-9.1455H66.1769V669.99H73.33v9.2481h31.73a16.0008,16.0008,0,0,0,5.0576-.4854,3.8245,3.8245,0,0,0,1.7891-1.584,6.1219,6.1219,0,0,0,.664-3.1425A29.7985,29.7985,0,0,0,112.212,669.99Z"/><path class="c" d="M113.7453,625.5894a34.2393,34.2393,0,0,1,6.1308,9.835,28.4222,28.4222,0,0,1,1.7891,10.1426q0,8.9414-4.3692,13.7441a14.4163,14.4163,0,0,1-11.164,4.8028,14.8472,14.8472,0,0,1-7.28-1.8135,15.0048,15.0048,0,0,1-5.2881-4.752,22.33,22.33,0,0,1-3.0146-6.6162,65.8519,65.8519,0,0,1-1.38-8.1758q-1.3287-11.1372-3.168-16.4-1.89-.0512-2.4014-.0517-5.619,0-7.92,2.6064-3.1157,3.5244-3.1162,10.4737,0,6.4891,2.2734,9.58,2.2751,3.0924,8.0479,4.5733L81.6583,662.53a22.282,22.282,0,0,1-9.3252-4.0362,17.6964,17.6964,0,0,1-5.4668-8.124,36.232,36.232,0,0,1-1.916-12.3135,32.6234,32.6234,0,0,1,1.6348-11.292,14.9016,14.9016,0,0,1,4.1133-6.3867,14.4847,14.4847,0,0,1,6.2588-2.8613,51.7859,51.7859,0,0,1,8.4824-.46H97.7013q12.8262,0,16.2227-.5869a20.4536,20.4536,0,0,0,6.5146-2.3252V623.75A19.4886,19.4886,0,0,1,113.7453,625.5894Zm-20.54.7666q2.0449,5.0068,3.4746,15.0215a34.71,34.71,0,0,0,1.84,8.0215,8.0007,8.0007,0,0,0,2.9882,3.6279,8.1287,8.1287,0,0,0,10.5-1.5078q2.4522-2.7831,2.4532-8.1494a18.9562,18.9562,0,0,0-2.3252-9.4521,14.317,14.317,0,0,0-6.3614-6.08q-3.1157-1.481-9.1972-1.4815Z"/><path class="c" d="M120.4386,602.9029H66.1769v-8.2764h8.2256q-5.7731-3.1685-7.6123-5.8505a10.2108,10.2108,0,0,1-1.84-5.9014,17.94,17.94,0,0,1,2.9639-9.4522l8.5322,3.167a13.167,13.167,0,0,0-1.9922,6.7452,8.759,8.759,0,0,0,1.8135,5.416,9.82,9.82,0,0,0,5.0332,3.4228,35.801,35.801,0,0,0,10.73,1.5332h28.4082Z"/><path class="c" d="M112.212,547.8756l8.1241-1.3282a34.1152,34.1152,0,0,1,.8174,6.9483,15.7467,15.7467,0,0,1-1.5831,7.7666,8.8663,8.8663,0,0,1-4.165,3.8828q-2.5781,1.125-10.8574,1.124H73.33v6.7442H66.1769v-6.7442H52.7394l-5.5186-9.1455H66.1769v-9.248H73.33v9.248h31.73a16.0018,16.0018,0,0,0,5.0576-.4853,3.8256,3.8256,0,0,0,1.7891-1.584,6.1221,6.1221,0,0,0,.664-3.1426A29.7959,29.7959,0,0,0,112.212,547.8756Z"/><path class="c" d="M94.1759,455.191l2.5039-9.9121q12.2124,3.1172,18.624,11.2158,6.4131,8.0976,6.4122,19.7988,0,12.1084-4.9307,19.6963a30.7848,30.7848,0,0,1-14.28,11.5479,50.9577,50.9577,0,0,1-20.08,3.959,44.1279,44.1279,0,0,1-20.4121-4.4707,30.6262,30.6262,0,0,1-13.2334-12.7217A37.1723,37.1723,0,0,1,44.257,476.14q0-11.24,5.7226-18.9053,5.7233-7.6639,16.0948-10.6787l2.3,9.7588q-8.1753,2.606-11.9053,7.5625t-3.7295,12.4668q0,8.6354,4.1387,14.4336a21.8459,21.8459,0,0,0,11.1123,8.15,44.7533,44.7533,0,0,0,14.3828,2.35,45.7068,45.7068,0,0,0,16.6826-2.7842,20.7443,20.7443,0,0,0,10.6533-8.66,24.2954,24.2954,0,0,0,3.5254-12.7227,21.321,21.321,0,0,0-4.8027-14.1025Q103.63,457.2354,94.1759,455.191Z"/><path class="c" d="M120.4386,432.76H45.5343v-9.9121H76.2931V383.9146H45.5343v-9.9121h74.9043v9.9121H85.1329v38.9336h35.3057Z"/><path class="c" d="M120.4386,365.7252,45.5343,336.96V326.2808l74.9043-30.6562v11.291l-22.6855,8.7373v31.32L120.4386,355.2ZM89.68,344.1119V318.7183l-20.7441,7.8174q-9.4512,3.5772-15.5322,5.3145a95.464,95.464,0,0,1,14.3056,4.0361Z"/><path class="c" d="M120.4386,276.4137H54.3742v24.6787h-8.84V241.72h8.84v24.7812h66.0644Z"/><path class="c" d="M88.6691,146.7711H79.881l-.0518-31.7295h27.7959a56.0586,56.0586,0,0,1,8.7627,15.0723,44.7253,44.7253,0,0,1,2.9375,15.9414,42.531,42.531,0,0,1-4.7265,20.0546,31.2293,31.2293,0,0,1-13.667,13.6163,43.0376,43.0376,0,0,1-19.9785,4.5986,46.3532,46.3532,0,0,1-20.4112-4.5733A30.4128,30.4128,0,0,1,46.465,166.5953a41.2326,41.2326,0,0,1-4.5987-19.7734,39.1829,39.1829,0,0,1,2.6319-14.69,24.3675,24.3675,0,0,1,7.332-10.2959,32.5518,32.5518,0,0,1,12.2627-5.6709l2.4522,8.9414a27.6949,27.6949,0,0,0-8.9922,4.19,17.1982,17.1982,0,0,0-5.2373,7.1533,26.2477,26.2477,0,0,0-1.9668,10.3213,30.3755,30.3755,0,0,0,2.0693,11.751,21.9089,21.9089,0,0,0,5.4414,7.996,25.9389,25.9389,0,0,0,7.4082,4.7266A39.1913,39.1913,0,0,0,80.341,174.106q10.0136,0,16.7587-3.4492a22.0612,22.0612,0,0,0,10.0137-10.04,31.07,31.07,0,0,0,3.27-13.999,33.2376,33.2376,0,0,0-2.4785-12.5694,32.4093,32.4093,0,0,0-5.2881-9.2988H88.6691Z"/><path class="c" d="M81.5665,103.443q-18.6489,0-29.2-10.0137T41.8156,67.5748a35.8719,35.8719,0,0,1,4.956-18.7A32.3751,32.3751,0,0,1,60.5929,36.1783a44.8813,44.8813,0,0,1,20.1055-4.3691,44.141,44.141,0,0,1,20.3867,4.5986,31.39,31.39,0,0,1,13.6162,13.0293,37.2211,37.2211,0,0,1,4.624,18.1894,35.416,35.416,0,0,1-5.1093,18.9043,32.8716,32.8716,0,0,1-13.9483,12.62A42.2743,42.2743,0,0,1,81.5665,103.443ZM81.72,93.2242q13.541,0,21.332-7.28a23.948,23.948,0,0,0,7.792-18.2666,23.9128,23.9128,0,0,0-7.8682-18.4189q-7.8677-7.23-22.3281-7.23A38.3811,38.3811,0,0,0,64.68,45.12a23.76,23.76,0,0,0-10.5761,9.043A24.5177,24.5177,0,0,0,50.3488,67.524a25.3468,25.3468,0,0,0,7.23,18.1133Q64.8088,93.2237,81.72,93.2242Z"/><rect class="c" x="159.9668" y="9.4469" width="786" height="786"/><path class="b" d="M938.9673,16.4471v772h-772v-772h772m14-14h-800v800h800v-800Z"/><path class="d" d="M667.3146,335.069a203.9959,203.9959,0,0,1-3.196,37.634"/><path class="e" d="M622.3411,432.69c-21.611,20.1872-49.5206,32.3515-79.9931,32.3515-68.6006,0-124.2123-61.6489-124.2123-137.6966s55.6117-137.6966,124.2122-137.6966c31.338,0,61.2153,13.4341,83.2437,35.4959,29.1532,29.1975,41.4061,69.3834,41.723,109.9248"/><path class="e" d="M426.4524,199.8331c29.5827-33.0409,70.5838-53.5009,115.8956-53.5009,75.8078,0,139.55,57.268,157.9424,134.9072"/><rect class="f" x="679.7026" y="280.6674" width="51.8639" height="93.355" rx="10.5839"/><path class="e" d="M679.7026,364.6614s-39.8769,43.4263-126.4788,43.4263"/><ellipse class="g" cx="540.416" cy="408.0877" rx="18.6608" ry="14.5993"/><path class="f" d="M644.58,506.5478c44.67,10.9325,87.5524,48.964,119.12,84.03,22.9811,25.5277,4.5293,66.2575-29.8188,66.2573l-372.385-.002c-35.6622,0-55.4169-40.9293-33.6617-69.1871,29.3438-38.1145,71.9129-67.0191,129.4646-81.1054,16.6332-4.0712,49.5908,5.585,64.2289,8.62a154.7746,154.7746,0,0,0,61.269-.035C598.2231,512.1144,627.79,502.4388,644.58,506.5478Z"/></svg>