<svg xmlns="http://www.w3.org/2000/svg" xmlns:xlink="http://www.w3.org/1999/xlink" preserveAspectRatio="xMidYMid meet" width="405" height="200" viewBox="0 0 405 200" style="width:100%;height:100%"><defs><animate repeatCount="indefinite" dur="10.01001s" begin="0s" xlink:href="#_R_G_L_4_G" fill="freeze" attributeName="opacity" from="0" to="0.4" keyTimes="0;0.0366667;1" values="0;0.4;0.4" keySplines="0.167 0.167 0.833 0.833;0 0 0 0" calcMode="spline"/><animate repeatCount="indefinite" dur="10.01001s" begin="0s" xlink:href="#_R_G_L_3_G" fill="freeze" attributeName="opacity" from="0" to="1" keyTimes="0;0.0366667;1" values="0;1;1" keySplines="0.167 0.167 0.833 0.833;0 0 0 0" calcMode="spline"/><animate repeatCount="indefinite" dur="10.01001s" begin="0s" xlink:href="#_R_G_L_2_G" fill="freeze" attributeName="opacity" from="0" to="1" keyTimes="0;0.0766667;1" values="0;1;1" keySplines="0.167 0.167 0.833 0.833;0 0 0 0" calcMode="spline"/><animateTransform repeatCount="indefinite" dur="10.01001s" begin="0s" xlink:href="#_R_G_L_2_G" fill="freeze" attributeName="transform" from="0" to="0" type="rotate" additive="sum" keyTimes="0;0.0766667;0.13;0.1966667;0.2433333;1" values="0;0;25;-25;0;0" keySplines="0.24 0 0.76 1;0.24 0 0.76 1;0.24 0 0.76 1;0.24 0 0.76 1;0 0 0 0" calcMode="spline"/><animateTransform repeatCount="indefinite" dur="10.01001s" begin="0s" xlink:href="#_R_G_L_2_G" fill="freeze" attributeName="transform" from="135.25 66.5" to="135.25 66.5" type="translate" additive="sum" keyTimes="0;1" values="135.25 66.5;135.25 66.5" keySplines="0 0 1 1" calcMode="spline"/><animate attributeType="XML" attributeName="opacity" dur="10s" from="0" to="1" xlink:href="#time_group"/></defs><g id="_R_G"><g id="_R_G_L_4_G"><path id="_R_G_L_4_G_D_0_P_0" fill="#531c8b" fill-opacity="1" fill-rule="nonzero" d=" M328.37 139.78 C328.37,139.78 299,109.68 299,109.68 C299,109.68 299,83.56 299,83.56 C299,81.2 297.07,79.27 294.71,79.27 C294.71,79.27 34.8,79.27 34.8,79.27 C32.44,79.27 30.52,81.2 30.52,83.56 C30.52,83.56 30.52,142.65 30.52,142.65 C30.52,145.01 32.44,146.94 34.8,146.94 C34.8,146.94 294.71,146.94 294.71,146.94 C297.07,146.94 299,145.01 299,142.65 C299,142.65 299,141.71 299,141.71 C299,141.71 326.87,143.09 326.87,143.09 C328.65,143.17 329.6,141.05 328.37,139.78z "/></g><g id="_R_G_L_3_G" transform=" translate(177, 110) translate(0, 0)"><path id="_R_G_L_3_G_D_0_P_0" fill="#ffffff" fill-opacity="1" fill-rule="nonzero" d=" M148.31 26.67 C148.31,26.67 118.94,-3.42 118.94,-3.42 C118.94,-3.42 118.94,-29.55 118.94,-29.55 C118.94,-31.91 117.01,-33.83 114.65,-33.83 C114.65,-33.83 -145.26,-33.83 -145.26,-33.83 C-147.61,-33.83 -149.54,-31.91 -149.54,-29.55 C-149.54,-29.55 -149.54,29.55 -149.54,29.55 C-149.54,31.91 -147.61,33.84 -145.26,33.84 C-145.26,33.84 114.65,33.84 114.65,33.84 C117.01,33.84 118.94,31.91 118.94,29.55 C118.94,29.55 118.94,28.61 118.94,28.61 C118.94,28.61 146.81,29.98 146.81,29.98 C148.58,30.07 149.54,27.94 148.31,26.67z "/><path id="_R_G_L_3_G_D_1_P_0" stroke="#cabadc" stroke-linecap="round" stroke-linejoin="round" fill="none" stroke-width="1" stroke-opacity="1" d=" M148.31 26.67 C148.31,26.67 118.94,-3.42 118.94,-3.42 C118.94,-3.42 118.94,-29.55 118.94,-29.55 C118.94,-31.91 117.01,-33.83 114.65,-33.83 C114.65,-33.83 -145.26,-33.83 -145.26,-33.83 C-147.61,-33.83 -149.54,-31.91 -149.54,-29.55 C-149.54,-29.55 -149.54,29.55 -149.54,29.55 C-149.54,31.91 -147.61,33.84 -145.26,33.84 C-145.26,33.84 114.65,33.84 114.65,33.84 C117.01,33.84 118.94,31.91 118.94,29.55 C118.94,29.55 118.94,28.61 118.94,28.61 C118.94,28.61 146.81,29.98 146.81,29.98 C148.58,30.07 149.54,27.94 148.31,26.67z "/></g><g id="_R_G_L_2_G" transform=" translate(69.75, 31.75)"><path id="_R_G_L_2_G_D_0_P_0" fill="#baa4d1" fill-opacity="1" fill-rule="nonzero" d=" M-132.25 -64.25 C-115.14,-64.25 -101.25,-50.36 -101.25,-33.25 C-101.25,-16.14 -115.14,-2.25 -132.25,-2.25 C-149.36,-2.25 -163.25,-16.14 -163.25,-33.25 C-163.25,-50.36 -149.36,-64.25 -132.25,-64.25z "/><path id="_R_G_L_2_G_D_1_P_0" fill="#ffffff" fill-opacity="1" fill-rule="nonzero" d=" M-135.25 -66.5 C-118.14,-66.5 -104.25,-52.61 -104.25,-35.5 C-104.25,-18.39 -118.14,-4.5 -135.25,-4.5 C-152.36,-4.5 -166.25,-18.39 -166.25,-35.5 C-166.25,-52.61 -152.36,-66.5 -135.25,-66.5z "/><path id="_R_G_L_2_G_D_2_P_0" stroke="#531c8b" stroke-linecap="round" stroke-linejoin="round" fill="none" stroke-width="0.7" stroke-opacity="1" d=" M-135.25 -66.5 C-118.14,-66.5 -104.25,-52.61 -104.25,-35.5 C-104.25,-18.39 -118.14,-4.5 -135.25,-4.5 C-152.36,-4.5 -166.25,-18.39 -166.25,-35.5 C-166.25,-52.61 -152.36,-66.5 -135.25,-66.5z "/><path id="_R_G_L_2_G_D_3_P_0" fill="#ffffff" fill-opacity="1" fill-rule="nonzero" d=" M-121.12 -38.19 C-121.12,-38.19 -121.12,-27.37 -121.12,-27.37 C-121.12,-24.06 -123.81,-21.37 -127.12,-21.37 C-127.12,-21.37 -142.69,-21.37 -142.69,-21.37 C-146,-21.37 -148.69,-24.06 -148.69,-27.37 C-148.69,-27.37 -148.69,-38.19 -148.69,-38.19 C-148.69,-41.5 -146,-44.19 -142.69,-44.19 C-142.69,-44.19 -127.12,-44.19 -127.12,-44.19 C-123.81,-44.19 -121.12,-41.5 -121.12,-38.19z "/><path id="_R_G_L_2_G_D_4_P_0" stroke="#003da5" stroke-linecap="round" stroke-linejoin="round" fill="none" stroke-width="3" stroke-opacity="1" d=" M-121.12 -38.19 C-121.12,-38.19 -121.12,-27.37 -121.12,-27.37 C-121.12,-24.06 -123.81,-21.37 -127.12,-21.37 C-127.12,-21.37 -142.69,-21.37 -142.69,-21.37 C-146,-21.37 -148.69,-24.06 -148.69,-27.37 C-148.69,-27.37 -148.69,-38.19 -148.69,-38.19 C-148.69,-41.5 -146,-44.19 -142.69,-44.19 C-142.69,-44.19 -127.12,-44.19 -127.12,-44.19 C-123.81,-44.19 -121.12,-41.5 -121.12,-38.19z "/><path id="_R_G_L_2_G_D_5_P_0" fill="#003da5" fill-opacity="1" fill-rule="nonzero" d=" M-141.03 -38.12 C-139.77,-38.12 -138.75,-37.1 -138.75,-35.84 C-138.75,-34.58 -139.77,-33.56 -141.03,-33.56 C-142.29,-33.56 -143.31,-34.58 -143.31,-35.84 C-143.31,-37.1 -142.29,-38.12 -141.03,-38.12z "/><path id="_R_G_L_2_G_D_6_P_0" fill="#003da5" fill-opacity="1" fill-rule="nonzero" d=" M-129.03 -38.12 C-127.77,-38.12 -126.75,-37.1 -126.75,-35.84 C-126.75,-34.58 -127.77,-33.56 -129.03,-33.56 C-130.29,-33.56 -131.31,-34.58 -131.31,-35.84 C-131.31,-37.1 -130.29,-38.12 -129.03,-38.12z "/><path id="_R_G_L_2_G_D_7_P_0" fill="#003da5" fill-opacity="1" fill-rule="nonzero" d=" M-134.95 -26.67 C-136.96,-26.69 -138.28,-27.25 -139.3,-28.46 C-139.66,-28.88 -139.9,-29.34 -139.46,-29.83 C-139.03,-30.32 -138.61,-30.03 -138.18,-29.75 C-136.26,-28.51 -134.32,-28.52 -132.4,-29.76 C-131.97,-30.04 -131.46,-30.35 -131.15,-29.81 C-130.97,-29.5 -131.04,-28.84 -131.26,-28.54 C-132.28,-27.19 -133.72,-26.66 -134.95,-26.67z "/><path id="_R_G_L_2_G_D_8_P_0" fill="#003da5" fill-opacity="1" fill-rule="nonzero" d=" M-134.12 -50.37 C-134.12,-50.37 -134.12,-44.12 -134.12,-44.12 C-134.12,-44.12 -136.37,-44.12 -136.37,-44.12 C-136.37,-44.12 -136.37,-50.37 -136.37,-50.37 C-136.37,-50.37 -134.12,-50.37 -134.12,-50.37z "/><path id="_R_G_L_2_G_D_9_P_0" fill="#003da5" fill-opacity="1" fill-rule="nonzero" d=" M-135.19 -54.25 C-133.36,-54.25 -131.88,-52.77 -131.88,-50.94 C-131.88,-49.11 -133.36,-47.62 -135.19,-47.62 C-137.02,-47.62 -138.5,-49.11 -138.5,-50.94 C-138.5,-52.77 -137.02,-54.25 -135.19,-54.25z "/></g><g id="_R_G_L_1_G" transform=" translate(160.032, 103.735) scale(0.65345, 0.65345) translate(-0.432, 12.266)"><text id="_R_G_L_1_G_X" font-size="24px" font-family="Lato" font-weight="Regular" fill="#003da5" text-anchor="middle" letter-spacing="0"><tspan id="_R_G_L_1_G_X_A_0" x="0" dy="0">Hey I’m your InteracT Chatbot. </tspan><tspan id="_R_G_L_1_G_X_A_1" x="0" dy="28.8000011444092">Ask me your IT questions</tspan><tspan id="_R_G_L_1_G_X_A_2" x="0" dy="28.8000011444092"/></text></g><g id="_R_G_L_0_G" transform=" translate(118.75, 65.25) translate(83.75, 34.75)"/></g><g id="time_group"/></svg>