<svg xmlns="http://www.w3.org/2000/svg" xmlns:xlink="http://www.w3.org/1999/xlink" preserveAspectRatio="xMidYMid meet" width="110" height="110" viewBox="0 0 110 110" style="width:100%;height:100%"><defs><animateTransform repeatCount="indefinite" dur="10.01001s" begin="0s" xlink:href="#_R_G_L_4_G" fill="freeze" attributeName="transform" from="0.9 0.9" to="0.9 0.9" type="scale" additive="sum" keyTimes="0;0.0533333;0.1033333;0.3033333;0.36;0.41;0.6033333;0.66;0.71;1" values="0.9 0.9;1 1;0.9 0.9;0.9 0.9;1 1;0.9 0.9;0.9 0.9;1 1;0.9 0.9;0.9 0.9" keySplines="0.167 0.167 0.833 0.833;0.167 0.167 0.833 0.833;0.167 0.167 0.833 0.833;0.167 0.167 0.833 0.833;0.167 0.167 0.833 0.833;0.167 0.167 0.833 0.833;0.167 0.167 0.833 0.833;0.167 0.167 0.833 0.833;0 0 0 0" calcMode="spline"/><animateTransform repeatCount="indefinite" dur="10.01001s" begin="0s" xlink:href="#_R_G_L_4_G" fill="freeze" attributeName="transform" from="-55 -55" to="-55 -55" type="translate" additive="sum" keyTimes="0;1" values="-55 -55;-55 -55" keySplines="0 0 1 1" calcMode="spline"/><animate repeatCount="indefinite" dur="10.01001s" begin="0s" xlink:href="#_R_G_L_3_G" fill="freeze" attributeName="opacity" from="0" to="1" keyTimes="0;0.0533333;0.2866667;0.35;0.4033333;0.59;0.6533333;0.7066667;1" values="0;1;1;0;1;1;0;1;1" keySplines="0.167 0.167 0.833 0.833;0.167 0.167 0.833 0.833;0.167 0.167 0.833 0.833;0.167 0.167 0.833 0.833;0.167 0.167 0.833 0.833;0.167 0.167 0.833 0.833;0.167 0.167 0.833 0.833;0 0 0 0" calcMode="spline"/><animate repeatCount="indefinite" dur="10.01001s" begin="0s" xlink:href="#_R_G_L_2_G" fill="freeze" attributeName="opacity" from="0" to="0" keyTimes="0;0.1033333;0.15;0.2166667;0.2533333;0.3533333;0.4;0.4666666;0.5033333;0.6166666;0.6633333;0.73;0.7666667;1" values="0;0;1;1;0;0;1;1;0;0;1;1;0;0" keySplines="0.167 0.167 0.833 0.833;0.167 0.167 0.833 0.833;0.167 0.167 0.833 0.833;0.167 0.167 0.833 0.833;0.167 0.167 0.833 0.833;0.167 0.167 0.833 0.833;0.167 0.167 0.833 0.833;0.167 0.167 0.833 0.833;0.167 0.167 0.833 0.833;0.167 0.167 0.833 0.833;0.167 0.167 0.833 0.833;0.167 0.167 0.833 0.833;0 0 0 0" calcMode="spline"/><animateTransform repeatCount="indefinite" dur="10.01001s" begin="0s" xlink:href="#_R_G_L_2_G" fill="freeze" attributeName="transform" from="0.9 0.9" to="0.9 0.9" type="scale" additive="sum" keyTimes="0;0.0533333;0.1033333;0.3033333;0.36;0.41;0.6033333;0.66;0.71;1" values="0.9 0.9;1 1;0.9 0.9;0.9 0.9;1 1;0.9 0.9;0.9 0.9;1 1;0.9 0.9;0.9 0.9" keySplines="0.167 0.167 0.833 0.833;0.167 0.167 0.833 0.833;0.167 0.167 0.833 0.833;0.167 0.167 0.833 0.833;0.167 0.167 0.833 0.833;0.167 0.167 0.833 0.833;0.167 0.167 0.833 0.833;0.167 0.167 0.833 0.833;0 0 0 0" calcMode="spline"/><animate repeatCount="indefinite" dur="10.01001s" begin="0s" xlink:href="#_R_G_L_1_G" fill="freeze" attributeName="opacity" from="0" to="0" keyTimes="0;0.12;0.1666667;0.24;0.2766667;0.3766667;0.4233333;0.49;0.5266666;0.6433333;0.69;0.7566666;0.7933333;1" values="0;0;1;1;0;0;1;1;0;0;1;1;0;0" keySplines="0.167 0.167 0.833 0.833;0.167 0.167 0.833 0.833;0.167 0.167 0.833 0.833;0.167 0.167 0.833 0.833;0.167 0.167 0.833 0.833;0.167 0.167 0.833 0.833;0.167 0.167 0.833 0.833;0.167 0.167 0.833 0.833;0.167 0.167 0.833 0.833;0.167 0.167 0.833 0.833;0.167 0.167 0.833 0.833;0.167 0.167 0.833 0.833;0 0 0 0" calcMode="spline"/><animateTransform repeatCount="indefinite" dur="10.01001s" begin="0s" xlink:href="#_R_G_L_1_G" fill="freeze" attributeName="transform" from="0.9 0.9" to="0.9 0.9" type="scale" additive="sum" keyTimes="0;0.0533333;0.1033333;0.3033333;0.36;0.41;0.6033333;0.66;0.71;1" values="0.9 0.9;1 1;0.9 0.9;0.9 0.9;1 1;0.9 0.9;0.9 0.9;1 1;0.9 0.9;0.9 0.9" keySplines="0.167 0.167 0.833 0.833;0.167 0.167 0.833 0.833;0.167 0.167 0.833 0.833;0.167 0.167 0.833 0.833;0.167 0.167 0.833 0.833;0.167 0.167 0.833 0.833;0.167 0.167 0.833 0.833;0.167 0.167 0.833 0.833;0 0 0 0" calcMode="spline"/><animate repeatCount="indefinite" dur="10.01001s" begin="0s" xlink:href="#_R_G_L_0_G" fill="freeze" attributeName="opacity" from="0" to="0" keyTimes="0;0.1333333;0.18;0.25;0.2866667;0.4033333;0.45;0.52;0.5566666;0.67;0.7166666;0.7866666;0.8233333;1" values="0;0;1;1;0;0;1;1;0;0;1;1;0;0" keySplines="0.167 0.167 0.833 0.833;0.167 0.167 0.833 0.833;0.167 0.167 0.833 0.833;0.167 0.167 0.833 0.833;0.167 0.167 0.833 0.833;0.167 0.167 0.833 0.833;0.167 0.167 0.833 0.833;0.167 0.167 0.833 0.833;0.167 0.167 0.833 0.833;0.167 0.167 0.833 0.833;0.167 0.167 0.833 0.833;0.167 0.167 0.833 0.833;0 0 0 0" calcMode="spline"/><animateTransform repeatCount="indefinite" dur="10.01001s" begin="0s" xlink:href="#_R_G_L_0_G" fill="freeze" attributeName="transform" from="0.9 0.9" to="0.9 0.9" type="scale" additive="sum" keyTimes="0;0.0533333;0.1033333;0.3033333;0.36;0.41;0.6033333;0.66;0.71;1" values="0.9 0.9;1 1;0.9 0.9;0.9 0.9;1 1;0.9 0.9;0.9 0.9;1 1;0.9 0.9;0.9 0.9" keySplines="0.167 0.167 0.833 0.833;0.167 0.167 0.833 0.833;0.167 0.167 0.833 0.833;0.167 0.167 0.833 0.833;0.167 0.167 0.833 0.833;0.167 0.167 0.833 0.833;0.167 0.167 0.833 0.833;0.167 0.167 0.833 0.833;0 0 0 0" calcMode="spline"/><animate attributeType="XML" attributeName="opacity" dur="10s" from="0" to="1" xlink:href="#time_group"/></defs><g id="_R_G"><g id="_R_G_L_4_G" transform=" translate(55, 55)"><path id="_R_G_L_4_G_D_0_P_0" fill="#712e82" fill-opacity="1" fill-rule="nonzero" d=" M55 0 C24.62,0 0,24.62 0,55 C0,85.38 24.62,110 55,110 C85.38,110 110,85.38 110,55 C110,24.62 85.38,0 55,0z "/></g><g id="_R_G_L_3_G"><path id="_R_G_L_3_G_D_0_P_0" stroke="#ffffff" stroke-linecap="round" stroke-linejoin="round" fill="none" stroke-width="5.028" stroke-opacity="1" d=" M46.61 74.89 C46.61,74.89 62.44,74.89 62.44,74.89 C62.44,74.89 73.72,82.4 73.72,82.4 C73.72,82.4 73.51,74.89 73.51,74.89 C73.51,74.89 80.16,74.89 80.16,74.89 C82.24,74.89 83.94,73.18 83.94,71.1 C83.94,71.1 83.94,51.75 83.94,51.75 C83.94,49.67 82.24,47.96 80.16,47.96 C80.16,47.96 62.63,47.96 62.63,47.96 C62.63,47.96 62.97,52.44 62.13,54.45 C61.16,56.78 57.74,56.43 57.74,56.43 C57.74,56.43 42.82,56.5 42.82,56.5 C42.82,56.5 42.82,71.1 42.82,71.1 C42.82,73.18 44.53,74.89 46.61,74.89z  M58.86 56.4 C58.86,56.4 43.03,56.4 43.03,56.4 C43.03,56.4 31.75,63.92 31.75,63.92 C31.75,63.92 31.96,56.4 31.96,56.4 C31.96,56.4 25.31,56.4 25.31,56.4 C23.23,56.4 21.53,54.7 21.53,52.62 C21.53,52.62 21.53,33.26 21.53,33.26 C21.53,31.18 23.23,29.48 25.31,29.48 C25.31,29.48 58.86,29.48 58.86,29.48 C60.94,29.48 62.65,31.18 62.65,33.26 C62.65,33.26 62.65,52.62 62.65,52.62 C62.65,54.7 60.94,56.4 58.86,56.4z "/></g><g id="_R_G_L_2_G" transform=" translate(51.688, 53.042)"><path id="_R_G_L_2_G_D_0_P_0" fill="#ffffff" fill-opacity="1" fill-rule="nonzero" d=" M-17.9 -11.75 C-17.09,-11.75 -16.44,-11.09 -16.44,-10.28 C-16.44,-9.47 -17.09,-8.81 -17.9,-8.81 C-18.72,-8.81 -19.37,-9.47 -19.37,-10.28 C-19.37,-11.09 -18.72,-11.75 -17.9,-11.75z "/></g><g id="_R_G_L_1_G" transform=" translate(59.094, 53.042)"><path id="_R_G_L_1_G_D_0_P_0" fill="#ffffff" fill-opacity="1" fill-rule="nonzero" d=" M-17.9 -11.75 C-17.09,-11.75 -16.44,-11.09 -16.44,-10.28 C-16.44,-9.47 -17.09,-8.81 -17.9,-8.81 C-18.72,-8.81 -19.37,-9.47 -19.37,-10.28 C-19.37,-11.09 -18.72,-11.75 -17.9,-11.75z "/></g><g id="_R_G_L_0_G" transform=" translate(66.5, 53.042)"><path id="_R_G_L_0_G_D_0_P_0" fill="#ffffff" fill-opacity="1" fill-rule="nonzero" d=" M-17.9 -11.75 C-17.09,-11.75 -16.44,-11.09 -16.44,-10.28 C-16.44,-9.47 -17.09,-8.81 -17.9,-8.81 C-18.72,-8.81 -19.37,-9.47 -19.37,-10.28 C-19.37,-11.09 -18.72,-11.75 -17.9,-11.75z "/></g></g><g id="time_group"/></svg>