<?xml version="1.0" encoding="utf-8"?>
<!-- Generator: Adobe Illustrator 26.0.3, SVG Export Plug-In . SVG Version: 6.00 Build 0)  -->
<svg version="1.1" id="Layer_1" xmlns="http://www.w3.org/2000/svg" xmlns:xlink="http://www.w3.org/1999/xlink" x="0px" y="0px"
	 viewBox="0 0 90 90" style="enable-background:new 0 0 90 90;" xml:space="preserve">
<style type="text/css">
	.st0{fill:#AD0047;}
	.st1{fill:#FFFFFF;}
</style>
<circle class="st0" cx="45" cy="44.9" r="39.3"/>
<path class="st1" d="M74.9,33.5h-0.5C69.8,21.4,58.1,13.3,45,13.3c-13.1,0-24.8,8.1-29.5,20.2h-0.5c-1.4,0-2.5,1.2-2.5,2.8v10.5
	c0,1.5,1.1,2.8,2.5,2.8h3.7c1.4,0,2.5-1.2,2.5-2.8V36.3c0-1.5-1.1-2.8-2.5-2.8h-0.5C22.7,22.9,33.3,15.8,45,15.8
	c11.7,0,22.3,7.1,26.8,17.8h-0.5c-1.4,0-2.5,1.2-2.5,2.8v10.3l-0.1-0.1c0,0-0.5,0.5-1.4,1.1c0.1-0.9,0.2-1.8,0.2-2.8
	c0-12.4-10.1-22.5-22.5-22.5c-12.4,0-22.5,10.1-22.5,22.5c0,3,0.6,5.9,1.7,8.6h5.5c-1.4-2.5-2.3-5.5-2.3-8.6
	c0-9.6,7.8-17.5,17.5-17.5s17.5,7.8,17.5,17.5c0,2-0.4,3.9-1,5.7c-3.1,1.1-7.3,2-12.5,1.6c-0.6-1.3-2.2-2.1-4.1-2.1
	c-2.4,0-4.4,1.5-4.4,3.4c0,1.9,1.9,3.4,4.4,3.4c1.9,0,3.4-0.9,4-2.1c0.8,0,1.6,0.1,2.4,0.1c3.3,0,6.2-0.5,8.7-1.1
	c-3,5.2-8.7,8.7-15.1,8.7c-4.2,0-8-1.5-11-3.9h-6.9c4.1,5.4,10.6,8.9,17.9,8.9c10.2,0,18.9-6.9,21.6-16.3c1.5-0.8,2.5-1.6,3.2-2.2
	c0.4,0.4,0.9,0.6,1.5,0.6h3.7c1.4,0,2.5-1.2,2.5-2.8V36.3C77.4,34.8,76.3,33.5,74.9,33.5z M18.6,36c0,0,0.1,0.1,0.1,0.3v10.5
	c0,0.2-0.1,0.3,0,0.3l-3.6,0c0,0-0.1-0.1-0.1-0.3V36.3c0-0.2,0.1-0.3,0-0.3L18.6,36z M45,54.4c-1.2,0-1.9-0.6-1.9-0.9
	c0-0.3,0.7-0.9,1.9-0.9c1.2,0,1.9,0.6,1.9,0.9C46.9,53.8,46.2,54.4,45,54.4z M75,46.8c0,0.2-0.1,0.3,0,0.3l-3.6,0
	c0,0-0.1-0.1-0.1-0.3V36.3c0-0.1,0-0.2,0.1-0.3l3.5,0c0,0,0.1,0.1,0.1,0.3V46.8z"/>
</svg>
