<?xml version="1.0" encoding="utf-8"?>
<!-- Generator: Adobe Illustrator 26.0.3, SVG Export Plug-In . SVG Version: 6.00 Build 0)  -->
<svg version="1.1" id="Layer_1" xmlns="http://www.w3.org/2000/svg" xmlns:xlink="http://www.w3.org/1999/xlink" x="0px" y="0px"
	 viewBox="0 0 90 90" style="enable-background:new 0 0 90 90;" xml:space="preserve">
<style type="text/css">
	.st0{fill:#6E6E6E;}
	.st1{fill:#FFFFFF;}
</style>
<circle class="st0" cx="45" cy="44.9" r="39.3"/>
<g>
	<path class="st1" d="M23.2,68.2c-0.2,0-0.4,0-0.6-0.1c-0.5-0.2-0.9-0.8-0.9-1.3V55.1h2.9v8.1l7.7-7.7c0.3-0.3,0.6-0.4,1-0.4h31.9
		V24.6H24.7v26.1h-2.9V23.2c0-0.8,0.7-1.5,1.5-1.5h43.6c0.8,0,1.5,0.7,1.5,1.5v33.4c0,0.8-0.7,1.5-1.5,1.5H34l-9.7,9.7
		C24,68.1,23.6,68.2,23.2,68.2z"/>
	<rect x="31.1" y="30.7" class="st1" width="27.8" height="2.9"/>
	<rect x="31.1" y="37.7" class="st1" width="27.8" height="2.9"/>
	<rect x="31.1" y="44.6" class="st1" width="18.6" height="2.9"/>
</g>
</svg>
