<svg xmlns="http://www.w3.org/2000/svg" width="90" height="90" viewBox="0 0 800 800"><defs><style>.a{fill:#fff;}.a,.b{stroke:#e4002b;stroke-miterlimit:10;stroke-width:14px;}.b{fill:none;}</style></defs><rect class="a" x="53.9542" y="53.9542" width="692.0916" height="692.0916" rx="12"/><path class="b" d="M521.7275,333.0808a205.2243,205.2243,0,0,1-3.2154,37.8629l-1.4707,5.64"/><path class="b" d="M476.4805,431.2955c-21.7424,20.31-49.8218,32.5482-80.48,32.5482-69.0178,0-124.9678-62.0238-124.9678-138.534s55.95-138.534,124.9677-138.534c31.5286,0,61.5876,13.5157,83.75,35.7118,29.33,29.375,41.6579,69.8053,41.9767,110.5933"/><path class="b" d="M279.4,197.0224c29.7627-33.2418,71.0131-53.8263,116.6005-53.8263,76.2689,0,140.3986,57.6163,158.903,135.7277"/><rect class="b" x="534.1909" y="278.3483" width="52.1793" height="93.9228" rx="10.5839"/><path class="b" d="M534.1909,362.8532s-40.1194,43.69-127.248,43.69"/><ellipse class="b" cx="394.0572" cy="406.5436" rx="18.7743" ry="14.6881"/><path class="b" d="M498.8549,505.6025c44.9416,10.999,88.0848,49.2618,119.8448,84.5412,23.1208,25.6829,4.5567,66.66-30,66.66l-374.65-.002c-35.879,0-55.7539-41.1782-33.8664-69.6078,29.5223-38.3464,72.35-67.4267,130.2521-81.5988,16.7343-4.0959,49.8923,5.619,64.62,8.6726a155.7151,155.7151,0,0,0,61.6416-.0353C452.2159,511.203,481.9628,501.4685,498.8549,505.6025Z"/></svg>