<?xml version="1.0" encoding="utf-8"?>
<!-- Generator: Adobe Illustrator 26.0.3, SVG Export Plug-In . SVG Version: 6.00 Build 0)  -->
<svg version="1.1" id="Layer_1" xmlns="http://www.w3.org/2000/svg" xmlns:xlink="http://www.w3.org/1999/xlink" x="0px" y="0px"
	 viewBox="0 0 90 90" style="enable-background:new 0 0 90 90;" xml:space="preserve">
<style type="text/css">
	.st0{fill:#AD0047;}
	.st1{fill:none;stroke:#FFFFFF;stroke-width:2.6627;stroke-linecap:round;stroke-linejoin:round;stroke-miterlimit:10;}
</style>
<circle class="st0" cx="45" cy="44.9" r="39.3"/>
<g>
	<path class="st1" d="M54.3,63.5H35.7c-6.6,0-12-5.4-12-12V38.2c0-6.6,5.4-12,12-12h18.6c6.6,0,12,5.4,12,12v13.3
		C66.3,58.1,60.9,63.5,54.3,63.5z"/>
	<line class="st1" x1="37" y1="52.9" x2="53" y2="52.9"/>
	<path class="st1" d="M23.7,54.2c-5.1,0-9.3-4.2-9.3-9.3s4.2-9.3,9.3-9.3"/>
	<path class="st1" d="M66.3,54.2c5.1,0,9.3-4.2,9.3-9.3s-4.2-9.3-9.3-9.3"/>
	<circle class="st1" cx="35.7" cy="40.9" r="4"/>
	<circle class="st1" cx="54.3" cy="40.9" r="4"/>
	<line class="st1" x1="45" y1="26.2" x2="45" y2="18.2"/>
	<circle class="st1" cx="45" cy="14.2" r="4"/>
</g>
<path class="st1" d="M16.5,83c0-6.6,5.4-12,12-12h33c6.6,0,12,5.4,12,12"/>
</svg>
