<?xml version="1.0" encoding="UTF-8" standalone="no"?>
<!DOCTYPE svg PUBLIC "-//W3C//DTD SVG 1.1//EN" "http://www.w3.org/Graphics/SVG/1.1/DTD/svg11.dtd">
<!-- Generated by Microsoft Visio, SVG Export northrop_button.svg Page-1 -->
<svg xmlns="http://www.w3.org/2000/svg" xmlns:xlink="http://www.w3.org/1999/xlink" xmlns:ev="http://www.w3.org/2001/xml-events"
		xmlns:v="http://schemas.microsoft.com/visio/2003/SVGExtensions/" width="76px" height="76px"
		viewBox="0 0 397.6 397.6" xml:space="preserve" color-interpolation-filters="sRGB" class="st3">
	<v:documentProperties v:langID="2057" v:viewMarkup="false"/>

	<style type="text/css">
	<![CDATA[
		.st1 {fill:#00269a;stroke:none;stroke-linecap:round;stroke-linejoin:round;stroke-width:0.75}
		.st2 {fill:#fefefe;stroke:none;stroke-linecap:round;stroke-linejoin:round;stroke-width:0.75}
		.st3 {fill:none;fill-rule:evenodd;font-size:12px;overflow:visible;stroke-linecap:square;stroke-miterlimit:3}
	]]>
	</style>

	<g v:mID="0" v:index="1" v:groupContext="foregroundPage">
		<title>Page-1</title>
		<v:pageProperties v:drawingScale="0.0393701" v:pageScale="0.0393701" v:drawingUnits="24" v:shadowOffsetX="8.50394"
				v:shadowOffsetY="-8.50394"/>
		<g id="shape1-1" v:mID="1" v:groupContext="shape" transform="translate(0.375,-0.375)">
			<title>Sheet.1</title>
			<ellipse cx="198.425" cy="199.175" rx="198.425" ry="198.425" class="st1"/>
		</g>
		<g id="shape1010-3" v:mID="1010" v:groupContext="shape" transform="translate(47.8553,-48.564)">
			<title>Sheet.1010</title>
			<ellipse cx="150.591" cy="247.01" rx="150.591" ry="150.591" class="st2"/>
		</g>
		<g id="shape1013-5" v:mID="1013" v:groupContext="shape" transform="translate(65.9424,-65.281) rotate(-0.6)">
			<title>Sheet.1013</title>
			<path d="M0.92 383.96 A28.2752 14.8807 -92.92 0 0 14.34 354.96 A39.9864 31.0804 163.12 0 1 61.63 373.09 A54.2765 35.4729
						 12.92 0 1 0.79 395.53 A11.2101 1.98766 100.56 0 1 0.92 383.96 Z" class="st2"/>
		</g>
		<g id="shape1015-7" v:mID="1015" v:groupContext="shape" transform="translate(65.5719,-67.3558)">
			<title>Sheet.1015</title>
			<ellipse cx="5.81102" cy="391.789" rx="5.81102" ry="5.81102" class="st2"/>
		</g>
		<g id="shape1011-9" v:mID="1011" v:groupContext="shape" transform="translate(71.2411,-71.2411)">
			<title>Sheet.1011</title>
			<ellipse cx="127.559" cy="270.041" rx="127.559" ry="127.559" class="st1"/>
		</g>
		<g id="shape13-11" v:mID="13" v:groupContext="shape" transform="translate(108.092,-208.752)">
			<title>Sheet.13</title>
			<rect x="0" y="375.722" width="130.394" height="21.8789" rx="8.50394" ry="8.50394" class="st2"/>
		</g>
		<g id="shape14-13" v:mID="14" v:groupContext="shape" transform="translate(108.092,-166.97)">
			<title>Sheet.14</title>
			<rect x="0" y="375.722" width="181.417" height="21.8789" rx="8.50394" ry="8.50394" class="st2"/>
		</g>
		<g id="shape1014-15" v:mID="1014" v:groupContext="shape" transform="translate(73.0927,-77.403) rotate(-1.9)">
			<title>Sheet.1014</title>
			<path d="M11.34 347.99 A43.6341 26.1804 71.91 0 1 0 397.6 A49.5955 26.0376 -9.69 0 0 44.5 363.58 A8.94092 1.98687 80.73
						 0 1 41.1 355.08 A29.3525 8.6331 -3 0 0 11.34 347.99 Z" class="st1"/>
		</g>
	</g>
</svg>
